<?xml version="1.0" encoding="UTF-8" standalone="no"?>
<!-- Created with Inkscape (http://www.inkscape.org/) -->

<svg
   width="256"
   height="256"
   viewBox="0 0 67.733333 67.733331"
   version="1.1"
   id="svg5"
   inkscape:version="1.1 (c68e22c387, 2021-05-23)"
   sodipodi:docname="archlinux-logo.svg"
   xmlns:inkscape="http://www.inkscape.org/namespaces/inkscape"
   xmlns:sodipodi="http://sodipodi.sourceforge.net/DTD/sodipodi-0.dtd"
   xmlns="http://www.w3.org/2000/svg"
   xmlns:svg="http://www.w3.org/2000/svg">
  <sodipodi:namedview
     id="namedview7"
     pagecolor="#ffffff"
     bordercolor="#666666"
     borderopacity="1.0"
     inkscape:pageshadow="2"
     inkscape:pageopacity="0.0"
     inkscape:pagecheckerboard="0"
     inkscape:document-units="mm"
     showgrid="true"
     inkscape:zoom="2"
     inkscape:cx="95"
     inkscape:cy="107.75"
     inkscape:window-width="1920"
     inkscape:window-height="1027"
     inkscape:window-x="-8"
     inkscape:window-y="-8"
     inkscape:window-maximized="1"
     inkscape:current-layer="layer1"
     fit-margin-top="0"
     fit-margin-left="0"
     fit-margin-right="0"
     fit-margin-bottom="0"
     units="px">
    <inkscape:grid
       type="xygrid"
       id="grid2591"
       originx="-74.347916"
       originy="-129.31984" />
  </sodipodi:namedview>
  <defs
     id="defs2" />
  <g
     inkscape:label="レイヤー 1"
     inkscape:groupmode="layer"
     id="layer1"
     style="display:inline"
     transform="translate(-74.347916,-129.31983)"
     sodipodi:insensitive="true">
    <path
       id="path38088-7-3"
       style="display:inline;fill:#48fcd6;fill-opacity:1;stroke:#48fcd6;stroke-width:0;stroke-linecap:butt;stroke-linejoin:miter;stroke-miterlimit:4;stroke-dasharray:none;stroke-opacity:1"
       d="m 89.829562,147.21201 c 0,2.50881 0,5.01762 0,7.52642 6.03018,0 12.060368,0 18.090548,0 0,-2.76644 0,-5.53289 0,-8.29932 -6.03018,0 -12.060368,0 -18.090548,0 0,0.25762 0,0.51526 0,0.7729 z" />
    <path
       style="fill:#00ff00;fill-opacity:1;stroke:#00ff00;stroke-width:0.784189;stroke-linecap:butt;stroke-linejoin:miter;stroke-miterlimit:4;stroke-dasharray:none;stroke-opacity:1"
       d="m 90.659492,132.33024 17.428598,49.38102 h 0.41496 l 17.4286,-49.38102 z"
       id="path34535" />
    <path
       style="display:inline;fill:#48fcd6;fill-opacity:1;stroke:#48fcd6;stroke-width:0;stroke-linecap:butt;stroke-linejoin:miter;stroke-miterlimit:4;stroke-dasharray:none;stroke-opacity:1"
       d="m 90.767372,163.03777 h 21.470378 v 8.7143 H 90.767372 Z"
       id="path38088-7" />
    <path
       id="path18378"
       style="fill:#48fcd6;fill-opacity:1;stroke:#48fcd6;stroke-width:0.788176;stroke-linecap:butt;stroke-linejoin:miter;stroke-miterlimit:4;stroke-dasharray:none;stroke-opacity:1"
       d="m 81.176782,132.21303 c 0,10.95661 -0.0979,33.71494 0.21204,47.0026 0.20114,8.62352 16.71238,14.94433 26.619358,14.94433 V 182.36054 C 91.496552,180.67491 91.496552,172.24676 91.912562,132.21303 Z m 43.339818,0 c 0.41601,40.03373 0.41601,48.46188 -16.09563,50.14751 v 11.79942 c 9.90697,0 26.41824,-6.32081 26.61938,-14.94433 0.30994,-13.28766 0.21203,-36.04599 0.21203,-47.0026 z" />
  </g>
</svg>
